<svg version="1.1" viewBox="0.0 0.0 960.0 540.0" fill="none" stroke="none" stroke-linecap="square" stroke-miterlimit="10" xmlns:xlink="http://www.w3.org/1999/xlink" xmlns="http://www.w3.org/2000/svg"><clipPath id="g24c7ae175f4_0_420.0"><path d="m0 0l960.0 0l0 540.0l-960.0 0l0 -540.0z" clip-rule="nonzero"/></clipPath><g clip-path="url(#g24c7ae175f4_0_420.0)"><path fill="#ffffff" d="m0 0l960.0 0l0 540.0l-960.0 0z" fill-rule="evenodd"/><path fill="#d686e4" d="m462.75412 93.59055l0 0c80.94632 -0.0046844482 150.19388 58.14936 164.18002 137.87823c13.986084 79.72885 -31.333069 157.98032 -107.447815 185.52747c-76.11478 27.54715 -161.01791 -3.574829 -201.298 -73.787476c-40.28009 -70.21268 -24.290833 -159.21527 37.90912 -211.01747l14.803162 17.774445l0 0c-53.56787 44.6131 -67.338104 121.2639 -32.6481 181.73247c34.690033 60.468536 107.8103 87.27139 173.36185 63.54724c65.551605 -23.724152 104.58133 -91.115875 92.536224 -159.77995c-12.045166 -68.66411 -71.682556 -118.74753 -141.39511 -118.74349z" fill-rule="evenodd"/><path fill="#d686e4" d="m380.6428 123.87406l0 47.30709l-47.307068 -47.30709z" fill-rule="evenodd"/><path fill="#701c7f" d="m538.6221 284.27036l139.87396 0l0 66.11023l-139.87396 0z" fill-rule="evenodd"/><path fill="#ffffff" d="m552.6846 301.52597l-3.171875 0l-0.71875 1.984375l-1.03125 0l2.890625 -7.578125l0.875 0l2.90625 7.578125l-1.03125 0l-0.71875 -1.984375zm-2.875 -0.8125l2.578125 0l-1.296875 -3.546875l-1.28125 3.546875zm8.764038 1.296875q0 -0.390625 -0.296875 -0.59375q-0.28125 -0.21875 -1.015625 -0.375q-0.734375 -0.15625 -1.171875 -0.375q-0.421875 -0.21875 -0.625 -0.515625q-0.203125 -0.3125 -0.203125 -0.71875q0 -0.703125 0.578125 -1.171875q0.59375 -0.484375 1.5 -0.484375q0.953125 0 1.546875 0.5q0.609375 0.484375 0.609375 1.265625l-0.96875 0q0 -0.40625 -0.34375 -0.6875q-0.328125 -0.28125 -0.84375 -0.28125q-0.515625 0 -0.8125 0.234375q-0.296875 0.21875 -0.296875 0.59375q0 0.34375 0.265625 0.53125q0.28125 0.171875 1.0 0.328125q0.71875 0.15625 1.15625 0.390625q0.453125 0.21875 0.671875 0.53125q0.21875 0.3125 0.21875 0.765625q0 0.75 -0.609375 1.21875q-0.59375 0.453125 -1.5625 0.453125q-0.671875 0 -1.203125 -0.234375q-0.515625 -0.25 -0.8125 -0.671875q-0.28125 -0.4375 -0.28125 -0.9375l0.953125 0q0.03125 0.484375 0.390625 0.765625q0.359375 0.28125 0.953125 0.28125q0.546875 0 0.875 -0.21875q0.328125 -0.21875 0.328125 -0.59375zm3.791504 -1.109375l-0.59375 0.625l0 1.984375l-0.96875 0l0 -8.0l0.96875 0l0 4.84375l0.515625 -0.625l1.75 -1.84375l1.171875 0l-2.203125 2.34375l2.453125 3.28125l-1.125 0l-1.96875 -2.609375zm9.195251 -2.15625q-0.21875 -0.03125 -0.484375 -0.03125q-0.9375 0 -1.28125 0.796875l0 4.0l-0.953125 0l0 -5.625l0.9375 0l0.015625 0.640625q0.46875 -0.75 1.328125 -0.75q0.28125 0 0.4375 0.078125l0 0.890625zm1.93396 4.765625l-0.96875 0l0 -5.625l0.96875 0l0 5.625zm-1.046875 -7.125q0 -0.234375 0.140625 -0.390625q0.140625 -0.171875 0.421875 -0.171875q0.28125 0 0.421875 0.171875q0.15625 0.15625 0.15625 0.390625q0 0.234375 -0.15625 0.390625q-0.140625 0.15625 -0.421875 0.15625q-0.28125 0 -0.421875 -0.15625q-0.140625 -0.15625 -0.140625 -0.390625zm2.3516235 4.265625q0 -1.3125 0.609375 -2.09375q0.609375 -0.78125 1.609375 -0.78125q1.03125 0 1.609375 0.734375l0.046875 -0.625l0.875 0l0 5.484375q0 1.09375 -0.65625 1.71875q-0.640625 0.640625 -1.734375 0.640625q-0.59375 0 -1.1875 -0.265625q-0.578125 -0.25 -0.890625 -0.703125l0.5 -0.578125q0.625 0.765625 1.515625 0.765625q0.703125 0 1.09375 -0.40625q0.390625 -0.390625 0.390625 -1.109375l0 -0.484375q-0.578125 0.671875 -1.578125 0.671875q-0.984375 0 -1.59375 -0.796875q-0.609375 -0.796875 -0.609375 -2.171875zm0.96875 0.109375q0 0.953125 0.390625 1.5q0.390625 0.53125 1.09375 0.53125q0.90625 0 1.328125 -0.828125l0 -2.5625q-0.4375 -0.8125 -1.328125 -0.8125q-0.6875 0 -1.09375 0.546875q-0.390625 0.546875 -0.390625 1.625zm6.1973267 -2.203125q0.640625 -0.78125 1.671875 -0.78125q1.78125 0 1.796875 2.015625l0 3.71875l-0.96875 0l0 -3.71875q0 -0.609375 -0.28125 -0.90625q-0.265625 -0.296875 -0.84375 -0.296875q-0.46875 0 -0.828125 0.25q-0.34375 0.25 -0.546875 0.65625l0 4.015625l-0.953125 0l0 -8.0l0.953125 0l0 3.046875zm6.2130127 -2.046875l0 1.375l1.046875 0l0 0.734375l-1.046875 0l0 3.5q0 0.328125 0.140625 0.5q0.140625 0.171875 0.484375 0.171875q0.15625 0 0.453125 -0.0625l0 0.78125q-0.375 0.109375 -0.734375 0.109375q-0.640625 0 -0.96875 -0.390625q-0.328125 -0.390625 -0.328125 -1.109375l0 -3.5l-1.03125 0l0 -0.734375l1.03125 0l0 -1.375l0.953125 0zm4.5877686 4.140625q0 -1.328125 0.609375 -2.09375q0.609375 -0.78125 1.625 -0.78125q1.0 0 1.578125 0.671875l0.046875 -0.5625l0.875 0l0 7.796875l-0.953125 0l0 -2.6875q-0.59375 0.625 -1.5625 0.625q-1.015625 0 -1.625 -0.796875q-0.59375 -0.796875 -0.59375 -2.109375l0 -0.0625zm0.953125 0.109375q0 0.96875 0.40625 1.515625q0.421875 0.546875 1.109375 0.546875q0.859375 0 1.3125 -0.75l0 -2.765625q-0.46875 -0.734375 -1.3125 -0.734375q-0.6875 0 -1.109375 0.5625q-0.40625 0.546875 -0.40625 1.625zm8.80658 2.1875q-0.5625 0.671875 -1.640625 0.671875q-0.90625 0 -1.375 -0.515625q-0.46875 -0.53125 -0.484375 -1.5625l0 -3.65625l0.96875 0l0 3.625q0 1.28125 1.03125 1.28125q1.109375 0 1.46875 -0.8125l0 -4.09375l0.96875 0l0 5.625l-0.921875 0l-0.015625 -0.5625zm4.7338257 0.671875q-1.140625 0 -1.859375 -0.75q-0.71875 -0.765625 -0.71875 -2.015625l0 -0.171875q0 -0.84375 0.3125 -1.5q0.328125 -0.65625 0.90625 -1.03125q0.578125 -0.375 1.234375 -0.375q1.109375 0 1.71875 0.734375q0.609375 0.71875 0.609375 2.0625l0 0.390625l-3.8125 0q0.015625 0.84375 0.484375 1.359375q0.46875 0.5 1.171875 0.5q0.515625 0 0.859375 -0.203125q0.359375 -0.203125 0.625 -0.546875l0.59375 0.453125q-0.703125 1.09375 -2.125 1.09375zm-0.125 -5.046875q-0.578125 0 -0.96875 0.421875q-0.390625 0.421875 -0.484375 1.1875l2.8125 0l0 -0.078125q-0.046875 -0.734375 -0.40625 -1.125q-0.34375 -0.40625 -0.953125 -0.40625zm6.708008 3.4375q0 -0.390625 -0.296875 -0.59375q-0.28125 -0.21875 -1.015625 -0.375q-0.734375 -0.15625 -1.171875 -0.375q-0.421875 -0.21875 -0.625 -0.515625q-0.203125 -0.3125 -0.203125 -0.71875q0 -0.703125 0.578125 -1.171875q0.59375 -0.484375 1.5 -0.484375q0.953125 0 1.546875 0.5q0.609375 0.484375 0.609375 1.265625l-0.96875 0q0 -0.40625 -0.34375 -0.6875q-0.328125 -0.28125 -0.84375 -0.28125q-0.515625 0 -0.8125 0.234375q-0.296875 0.21875 -0.296875 0.59375q0 0.34375 0.265625 0.53125q0.28125 0.171875 1.0 0.328125q0.71875 0.15625 1.15625 0.390625q0.453125 0.21875 0.671875 0.53125q0.21875 0.3125 0.21875 0.765625q0 0.75 -0.609375 1.21875q-0.59375 0.453125 -1.5625 0.453125q-0.671875 0 -1.203125 -0.234375q-0.515625 -0.25 -0.8125 -0.671875q-0.28125 -0.4375 -0.28125 -0.9375l0.953125 0q0.03125 0.484375 0.390625 0.765625q0.359375 0.28125 0.953125 0.28125q0.546875 0 0.875 -0.21875q0.328125 -0.21875 0.328125 -0.59375zm3.525879 -5.5l0 1.375l1.046875 0l0 0.734375l-1.046875 0l0 3.5q0 0.328125 0.140625 0.5q0.140625 0.171875 0.484375 0.171875q0.15625 0 0.453125 -0.0625l0 0.78125q-0.375 0.109375 -0.734375 0.109375q-0.640625 0 -0.96875 -0.390625q-0.328125 -0.390625 -0.328125 -1.109375l0 -3.5l-1.03125 0l0 -0.734375l1.03125 0l0 -1.375l0.953125 0zm3.230957 7.0l-0.96875 0l0 -5.625l0.96875 0l0 5.625zm-1.046875 -7.125q0 -0.234375 0.140625 -0.390625q0.140625 -0.171875 0.421875 -0.171875q0.28125 0 0.421875 0.171875q0.15625 0.15625 0.15625 0.390625q0 0.234375 -0.15625 0.390625q-0.140625 0.15625 -0.421875 0.15625q-0.28125 0 -0.421875 -0.15625q-0.140625 -0.15625 -0.140625 -0.390625zm2.3204346 4.265625q0 -0.828125 0.328125 -1.484375q0.328125 -0.671875 0.90625 -1.03125q0.578125 -0.359375 1.328125 -0.359375q1.140625 0 1.84375 0.796875q0.71875 0.796875 0.71875 2.125l0 0.0625q0 0.8125 -0.3125 1.46875q-0.3125 0.65625 -0.90625 1.03125q-0.578125 0.359375 -1.34375 0.359375q-1.140625 0 -1.859375 -0.796875q-0.703125 -0.796875 -0.703125 -2.109375l0 -0.0625zm0.96875 0.109375q0 0.9375 0.4375 1.5q0.4375 0.5625 1.15625 0.5625q0.734375 0 1.171875 -0.5625q0.4375 -0.578125 0.4375 -1.609375q0 -0.9375 -0.453125 -1.5q-0.4375 -0.578125 -1.15625 -0.578125q-0.71875 0 -1.15625 0.5625q-0.4375 0.5625 -0.4375 1.625zm6.2805176 -2.875l0.03125 0.703125q0.640625 -0.8125 1.6875 -0.8125q1.78125 0 1.796875 2.015625l0 3.71875l-0.96875 0l0 -3.71875q0 -0.609375 -0.28125 -0.90625q-0.265625 -0.296875 -0.84375 -0.296875q-0.46875 0 -0.828125 0.25q-0.34375 0.25 -0.546875 0.65625l0 4.015625l-0.953125 0l0 -5.625l0.90625 0zm8.239014 4.125q0 -0.390625 -0.296875 -0.59375q-0.28125 -0.21875 -1.015625 -0.375q-0.734375 -0.15625 -1.171875 -0.375q-0.421875 -0.21875 -0.625 -0.515625q-0.203125 -0.3125 -0.203125 -0.71875q0 -0.703125 0.578125 -1.171875q0.59375 -0.484375 1.5 -0.484375q0.953125 0 1.546875 0.5q0.609375 0.484375 0.609375 1.265625l-0.96875 0q0 -0.40625 -0.34375 -0.6875q-0.328125 -0.28125 -0.84375 -0.28125q-0.515625 0 -0.8125 0.234375q-0.296875 0.21875 -0.296875 0.59375q0 0.34375 0.265625 0.53125q0.28125 0.171875 1.0 0.328125q0.71875 0.15625 1.15625 0.390625q0.453125 0.21875 0.671875 0.53125q0.21875 0.3125 0.21875 0.765625q0 0.75 -0.609375 1.21875q-0.59375 0.453125 -1.5625 0.453125q-0.671875 0 -1.203125 -0.234375q-0.515625 -0.25 -0.8125 -0.671875q-0.28125 -0.4375 -0.28125 -0.9375l0.953125 0q0.03125 0.484375 0.390625 0.765625q0.359375 0.28125 0.953125 0.28125q0.546875 0 0.875 -0.21875q0.328125 -0.21875 0.328125 -0.59375zm6.1639404 -5.5l0 1.375l1.046875 0l0 0.734375l-1.046875 0l0 3.5q0 0.328125 0.140625 0.5q0.140625 0.171875 0.484375 0.171875q0.15625 0 0.453125 -0.0625l0 0.78125q-0.375 0.109375 -0.734375 0.109375q-0.640625 0 -0.96875 -0.390625q-0.328125 -0.390625 -0.328125 -1.109375l0 -3.5l-1.03125 0l0 -0.734375l1.03125 0l0 -1.375l0.953125 0zm1.81427 4.140625q0 -0.828125 0.328125 -1.484375q0.328125 -0.671875 0.90625 -1.03125q0.578125 -0.359375 1.328125 -0.359375q1.140625 0 1.84375 0.796875q0.71875 0.796875 0.71875 2.125l0 0.0625q0 0.8125 -0.3125 1.46875q-0.3125 0.65625 -0.90625 1.03125q-0.578125 0.359375 -1.34375 0.359375q-1.140625 0 -1.859375 -0.796875q-0.703125 -0.796875 -0.703125 -2.109375l0 -0.0625zm0.96875 0.109375q0 0.9375 0.4375 1.5q0.4375 0.5625 1.15625 0.5625q0.734375 0 1.171875 -0.5625q0.4375 -0.578125 0.4375 -1.609375q0 -0.9375 -0.453125 -1.5q-0.4375 -0.578125 -1.15625 -0.578125q-0.71875 0 -1.15625 0.5625q-0.4375 0.5625 -0.4375 1.625z" fill-rule="nonzero"/><path fill="#ffffff" d="m551.8252 315.94785q-0.5625 0.671875 -1.640625 0.671875q-0.90625 0 -1.375 -0.515625q-0.46875 -0.53125 -0.484375 -1.5625l0 -3.65625l0.96875 0l0 3.625q0 1.28125 1.03125 1.28125q1.109375 0 1.46875 -0.8125l0 -4.09375l0.96875 0l0 5.625l-0.921875 0l-0.015625 -0.5625zm3.3119507 -5.0625l0.03125 0.703125q0.640625 -0.8125 1.6875 -0.8125q1.78125 0 1.796875 2.015625l0 3.71875l-0.96875 0l0 -3.71875q0 -0.609375 -0.28125 -0.90625q-0.265625 -0.296875 -0.84375 -0.296875q-0.46875 0 -0.828125 0.25q-0.34375 0.25 -0.546875 0.65625l0 4.015625l-0.953125 0l0 -5.625l0.90625 0zm7.2233887 4.9375q0.515625 0 0.890625 -0.3125q0.390625 -0.3125 0.4375 -0.78125l0.90625 0q-0.015625 0.484375 -0.328125 0.921875q-0.3125 0.4375 -0.828125 0.703125q-0.5 0.265625 -1.078125 0.265625q-1.140625 0 -1.828125 -0.765625q-0.671875 -0.78125 -0.671875 -2.109375l0 -0.15625q0 -0.828125 0.296875 -1.46875q0.296875 -0.640625 0.859375 -0.984375q0.578125 -0.359375 1.34375 -0.359375q0.9375 0 1.5625 0.578125q0.640625 0.5625 0.671875 1.46875l-0.90625 0q-0.046875 -0.546875 -0.421875 -0.890625q-0.359375 -0.359375 -0.90625 -0.359375q-0.734375 0 -1.140625 0.53125q-0.40625 0.515625 -0.40625 1.515625l0 0.1875q0 0.96875 0.40625 1.5q0.40625 0.515625 1.140625 0.515625zm3.0622559 -2.171875q0 -0.828125 0.328125 -1.484375q0.328125 -0.671875 0.90625 -1.03125q0.578125 -0.359375 1.328125 -0.359375q1.140625 0 1.84375 0.796875q0.71875 0.796875 0.71875 2.125l0 0.0625q0 0.8125 -0.3125 1.46875q-0.3125 0.65625 -0.90625 1.03125q-0.578125 0.359375 -1.34375 0.359375q-1.140625 0 -1.859375 -0.796875q-0.703125 -0.796875 -0.703125 -2.109375l0 -0.0625zm0.96875 0.109375q0 0.9375 0.4375 1.5q0.4375 0.5625 1.15625 0.5625q0.734375 0 1.171875 -0.5625q0.4375 -0.578125 0.4375 -1.609375q0 -0.9375 -0.453125 -1.5q-0.4375 -0.578125 -1.15625 -0.578125q-0.71875 0 -1.15625 0.5625q-0.4375 0.5625 -0.4375 1.625zm7.1555176 1.4375l1.390625 -4.3125l0.984375 0l-2.03125 5.625l-0.71875 0l-2.046875 -5.625l0.984375 0l1.4375 4.3125zm5.562683 1.421875q-1.140625 0 -1.859375 -0.75q-0.71875 -0.765625 -0.71875 -2.015625l0 -0.171875q0 -0.84375 0.3125 -1.5q0.328125 -0.65625 0.90625 -1.03125q0.578125 -0.375 1.234375 -0.375q1.109375 0 1.71875 0.734375q0.609375 0.71875 0.609375 2.0625l0 0.390625l-3.8125 0q0.015625 0.84375 0.484375 1.359375q0.46875 0.5 1.171875 0.5q0.515625 0 0.859375 -0.203125q0.359375 -0.203125 0.625 -0.546875l0.59375 0.453125q-0.703125 1.09375 -2.125 1.09375zm-0.125 -5.046875q-0.578125 0 -0.96875 0.421875q-0.390625 0.421875 -0.484375 1.1875l2.8125 0l0 -0.078125q-0.046875 -0.734375 -0.40625 -1.125q-0.34375 -0.40625 -0.953125 -0.40625zm6.161133 0.171875q-0.21875 -0.03125 -0.484375 -0.03125q-0.9375 0 -1.28125 0.796875l0 4.0l-0.953125 0l0 -5.625l0.9375 0l0.015625 0.640625q0.46875 -0.75 1.328125 -0.75q0.28125 0 0.4375 0.078125l0 0.890625zm5.7751465 4.078125q0.515625 0 0.890625 -0.3125q0.390625 -0.3125 0.4375 -0.78125l0.90625 0q-0.015625 0.484375 -0.328125 0.921875q-0.3125 0.4375 -0.828125 0.703125q-0.5 0.265625 -1.078125 0.265625q-1.140625 0 -1.828125 -0.765625q-0.671875 -0.78125 -0.671875 -2.109375l0 -0.15625q0 -0.828125 0.296875 -1.46875q0.296875 -0.640625 0.859375 -0.984375q0.578125 -0.359375 1.34375 -0.359375q0.9375 0 1.5625 0.578125q0.640625 0.5625 0.671875 1.46875l-0.90625 0q-0.046875 -0.546875 -0.421875 -0.890625q-0.359375 -0.359375 -0.90625 -0.359375q-0.734375 0 -1.140625 0.53125q-0.40625 0.515625 -0.40625 1.515625l0 0.1875q0 0.96875 0.40625 1.5q0.40625 0.515625 1.140625 0.515625zm4.281006 -4.265625q0.640625 -0.78125 1.671875 -0.78125q1.78125 0 1.796875 2.015625l0 3.71875l-0.96875 0l0 -3.71875q0 -0.609375 -0.28125 -0.90625q-0.265625 -0.296875 -0.84375 -0.296875q-0.46875 0 -0.828125 0.25q-0.34375 0.25 -0.546875 0.65625l0 4.015625l-0.953125 0l0 -8.0l0.953125 0l0 3.046875zm8.384888 4.953125q-0.078125 -0.171875 -0.140625 -0.59375q-0.671875 0.703125 -1.59375 0.703125q-0.828125 0 -1.375 -0.46875q-0.53125 -0.484375 -0.53125 -1.203125q0 -0.875 0.671875 -1.359375q0.671875 -0.484375 1.875 -0.484375l0.9375 0l0 -0.453125q0 -0.5 -0.296875 -0.796875q-0.296875 -0.296875 -0.890625 -0.296875q-0.515625 0 -0.859375 0.265625q-0.34375 0.25 -0.34375 0.625l-0.96875 0q0 -0.421875 0.296875 -0.8125q0.296875 -0.40625 0.8125 -0.625q0.515625 -0.234375 1.125 -0.234375q0.96875 0 1.515625 0.484375q0.5625 0.484375 0.578125 1.34375l0 2.59375q0 0.765625 0.203125 1.234375l0 0.078125l-1.015625 0zm-1.59375 -0.734375q0.453125 0 0.859375 -0.234375q0.40625 -0.234375 0.578125 -0.609375l0 -1.15625l-0.75 0q-1.765625 0 -1.765625 1.03125q0 0.453125 0.296875 0.71875q0.3125 0.25 0.78125 0.25zm4.9683228 0.734375l-0.96875 0l0 -8.0l0.96875 0l0 8.0zm2.5859985 0l-0.96875 0l0 -8.0l0.96875 0l0 8.0zm3.8672485 0.109375q-1.140625 0 -1.859375 -0.75q-0.71875 -0.765625 -0.71875 -2.015625l0 -0.171875q0 -0.84375 0.3125 -1.5q0.328125 -0.65625 0.90625 -1.03125q0.578125 -0.375 1.234375 -0.375q1.109375 0 1.71875 0.734375q0.609375 0.71875 0.609375 2.0625l0 0.390625l-3.8125 0q0.015625 0.84375 0.484375 1.359375q0.46875 0.5 1.171875 0.5q0.515625 0 0.859375 -0.203125q0.359375 -0.203125 0.625 -0.546875l0.59375 0.453125q-0.703125 1.09375 -2.125 1.09375zm-0.125 -5.046875q-0.578125 0 -0.96875 0.421875q-0.390625 0.421875 -0.484375 1.1875l2.8125 0l0 -0.078125q-0.046875 -0.734375 -0.40625 -1.125q-0.34375 -0.40625 -0.953125 -0.40625zm4.348694 -0.6875l0.03125 0.703125q0.640625 -0.8125 1.6875 -0.8125q1.78125 0 1.796875 2.015625l0 3.71875l-0.96875 0l0 -3.71875q0 -0.609375 -0.28125 -0.90625q-0.265625 -0.296875 -0.84375 -0.296875q-0.46875 0 -0.828125 0.25q-0.34375 0.25 -0.546875 0.65625l0 4.015625l-0.953125 0l0 -5.625l0.90625 0zm4.7390137 2.765625q0 -1.3125 0.609375 -2.09375q0.609375 -0.78125 1.609375 -0.78125q1.03125 0 1.609375 0.734375l0.046875 -0.625l0.875 0l0 5.484375q0 1.09375 -0.65625 1.71875q-0.640625 0.640625 -1.734375 0.640625q-0.59375 0 -1.1875 -0.265625q-0.578125 -0.25 -0.890625 -0.703125l0.5 -0.578125q0.625 0.765625 1.515625 0.765625q0.703125 0 1.09375 -0.40625q0.390625 -0.390625 0.390625 -1.109375l0 -0.484375q-0.578125 0.671875 -1.578125 0.671875q-0.984375 0 -1.59375 -0.796875q-0.609375 -0.796875 -0.609375 -2.171875zm0.96875 0.109375q0 0.953125 0.390625 1.5q0.390625 0.53125 1.09375 0.53125q0.90625 0 1.328125 -0.828125l0 -2.5625q-0.4375 -0.8125 -1.328125 -0.8125q-0.6875 0 -1.09375 0.546875q-0.390625 0.546875 -0.390625 1.625zm7.5722656 2.859375q-1.140625 0 -1.859375 -0.75q-0.71875 -0.765625 -0.71875 -2.015625l0 -0.171875q0 -0.84375 0.3125 -1.5q0.328125 -0.65625 0.90625 -1.03125q0.578125 -0.375 1.234375 -0.375q1.109375 0 1.71875 0.734375q0.609375 0.71875 0.609375 2.0625l0 0.390625l-3.8125 0q0.015625 0.84375 0.484375 1.359375q0.46875 0.5 1.171875 0.5q0.515625 0 0.859375 -0.203125q0.359375 -0.203125 0.625 -0.546875l0.59375 0.453125q-0.703125 1.09375 -2.125 1.09375zm-0.125 -5.046875q-0.578125 0 -0.96875 0.421875q-0.390625 0.421875 -0.484375 1.1875l2.8125 0l0 -0.078125q-0.046875 -0.734375 -0.40625 -1.125q-0.34375 -0.40625 -0.953125 -0.40625zm6.708069 3.4375q0 -0.390625 -0.296875 -0.59375q-0.28125 -0.21875 -1.015625 -0.375q-0.734375 -0.15625 -1.171875 -0.375q-0.421875 -0.21875 -0.625 -0.515625q-0.203125 -0.3125 -0.203125 -0.71875q0 -0.703125 0.578125 -1.171875q0.59375 -0.484375 1.5 -0.484375q0.953125 0 1.546875 0.5q0.609375 0.484375 0.609375 1.265625l-0.96875 0q0 -0.40625 -0.34375 -0.6875q-0.328125 -0.28125 -0.84375 -0.28125q-0.515625 0 -0.8125 0.234375q-0.296875 0.21875 -0.296875 0.59375q0 0.34375 0.265625 0.53125q0.28125 0.171875 1.0 0.328125q0.71875 0.15625 1.15625 0.390625q0.453125 0.21875 0.671875 0.53125q0.21875 0.3125 0.21875 0.765625q0 0.75 -0.609375 1.21875q-0.59375 0.453125 -1.5625 0.453125q-0.671875 0 -1.203125 -0.234375q-0.515625 -0.25 -0.8125 -0.671875q-0.28125 -0.4375 -0.28125 -0.9375l0.953125 0q0.03125 0.484375 0.390625 0.765625q0.359375 0.28125 0.953125 0.28125q0.546875 0 0.875 -0.21875q0.328125 -0.21875 0.328125 -0.59375z" fill-rule="nonzero"/><path fill="#551561" d="m538.6221 254.34908l124.91339 0c3.9677734 0 7.7730713 1.5762177 10.578735 4.3818817c2.805664 2.805664 4.381836 6.610962 4.381836 10.578766l0 14.960632l-139.87396 0z" fill-rule="evenodd"/><path fill="#ffffff" d="m552.6846 271.06534l-3.171875 0l-0.71875 1.984375l-1.03125 0l2.890625 -7.578125l0.875 0l2.90625 7.578125l-1.03125 0l-0.71875 -1.984375zm-2.875 -0.8125l2.578125 0l-1.296875 -3.546875l-1.28125 3.546875zm8.764038 1.296875q0 -0.390625 -0.296875 -0.59375q-0.28125 -0.21875 -1.015625 -0.375q-0.734375 -0.15625 -1.171875 -0.375q-0.421875 -0.21875 -0.625 -0.515625q-0.203125 -0.3125 -0.203125 -0.71875q0 -0.703125 0.578125 -1.171875q0.59375 -0.484375 1.5 -0.484375q0.953125 0 1.546875 0.5q0.609375 0.484375 0.609375 1.265625l-0.96875 0q0 -0.40625 -0.34375 -0.6875q-0.328125 -0.28125 -0.84375 -0.28125q-0.515625 0 -0.8125 0.234375q-0.296875 0.21875 -0.296875 0.59375q0 0.34375 0.265625 0.53125q0.28125 0.171875 1.0 0.328125q0.71875 0.15625 1.15625 0.390625q0.453125 0.21875 0.671875 0.53125q0.21875 0.3125 0.21875 0.765625q0 0.75 -0.609375 1.21875q-0.59375 0.453125 -1.5625 0.453125q-0.671875 0 -1.203125 -0.234375q-0.515625 -0.25 -0.8125 -0.671875q-0.28125 -0.4375 -0.28125 -0.9375l0.953125 0q0.03125 0.484375 0.390625 0.765625q0.359375 0.28125 0.953125 0.28125q0.546875 0 0.875 -0.21875q0.328125 -0.21875 0.328125 -0.59375zm3.791504 -1.109375l-0.59375 0.625l0 1.984375l-0.96875 0l0 -8.0l0.96875 0l0 4.84375l0.515625 -0.625l1.75 -1.84375l1.171875 0l-2.203125 2.34375l2.453125 3.28125l-1.125 0l-1.96875 -2.609375z" fill-rule="nonzero"/><path fill="#701c7f" d="m398.74802 104.3832l139.87405 0l0 66.11024l-139.87405 0z" fill-rule="evenodd"/><path fill="#ffffff" d="m413.96677 116.045074l0 5.15625q-0.015625 1.0625 -0.6875 1.75q-0.65625 0.6875 -1.8125 0.765625l-0.265625 0.015625q-1.234375 0 -1.984375 -0.671875q-0.734375 -0.671875 -0.734375 -1.859375l0 -5.15625l0.984375 0l0 5.125q0 0.828125 0.453125 1.28125q0.453125 0.453125 1.28125 0.453125q0.859375 0 1.296875 -0.453125q0.453125 -0.453125 0.453125 -1.265625l0 -5.140625l1.015625 0zm2.331787 1.953125l0.03125 0.703125q0.640625 -0.8125 1.6875 -0.8125q1.78125 0 1.796875 2.015625l0 3.71875l-0.96875 0l0 -3.71875q0 -0.609375 -0.28125 -0.90625q-0.265625 -0.296875 -0.84375 -0.296875q-0.46875 0 -0.828125 0.25q-0.34375 0.25 -0.546875 0.65625l0 4.015625l-0.953125 0l0 -5.625l0.90625 0zm4.739044 2.765625q0 -1.296875 0.609375 -2.078125q0.609375 -0.796875 1.609375 -0.796875q0.984375 0 1.5625 0.671875l0 -2.9375l0.96875 0l0 8.0l-0.890625 0l-0.046875 -0.609375q-0.578125 0.71875 -1.609375 0.71875q-0.96875 0 -1.59375 -0.796875q-0.609375 -0.8125 -0.609375 -2.09375l0 -0.078125zm0.953125 0.109375q0 0.953125 0.390625 1.5q0.40625 0.53125 1.09375 0.53125q0.921875 0 1.34375 -0.8125l0 -2.59375q-0.4375 -0.796875 -1.328125 -0.796875q-0.703125 0 -1.109375 0.546875q-0.390625 0.546875 -0.390625 1.625zm7.6191406 2.859375q-1.140625 0 -1.859375 -0.75q-0.71875 -0.765625 -0.71875 -2.015625l0 -0.171875q0 -0.84375 0.3125 -1.5q0.328125 -0.65625 0.90625 -1.03125q0.578125 -0.375 1.234375 -0.375q1.109375 0 1.71875 0.734375q0.609375 0.71875 0.609375 2.0625l0 0.390625l-3.8125 0q0.015625 0.84375 0.484375 1.359375q0.46875 0.5 1.171875 0.5q0.515625 0 0.859375 -0.203125q0.359375 -0.203125 0.625 -0.546875l0.59375 0.453125q-0.703125 1.09375 -2.125 1.09375zm-0.125 -5.046875q-0.578125 0 -0.96875 0.421875q-0.390625 0.421875 -0.484375 1.1875l2.8125 0l0 -0.078125q-0.046875 -0.734375 -0.40625 -1.125q-0.34375 -0.40625 -0.953125 -0.40625zm6.161133 0.171875q-0.21875 -0.03125 -0.484375 -0.03125q-0.9375 0 -1.28125 0.796875l0 4.0l-0.953125 0l0 -5.625l0.9375 0l0.015625 0.640625q0.46875 -0.75 1.328125 -0.75q0.28125 0 0.4375 0.078125l0 0.890625zm4.1527405 3.265625q0 -0.390625 -0.296875 -0.59375q-0.28125 -0.21875 -1.015625 -0.375q-0.734375 -0.15625 -1.171875 -0.375q-0.421875 -0.21875 -0.625 -0.515625q-0.203125 -0.3125 -0.203125 -0.71875q0 -0.703125 0.578125 -1.171875q0.59375 -0.484375 1.5 -0.484375q0.953125 0 1.546875 0.5q0.609375 0.484375 0.609375 1.265625l-0.96875 0q0 -0.40625 -0.34375 -0.6875q-0.328125 -0.28125 -0.84375 -0.28125q-0.515625 0 -0.8125 0.234375q-0.296875 0.21875 -0.296875 0.59375q0 0.34375 0.265625 0.53125q0.28125 0.171875 1.0 0.328125q0.71875 0.15625 1.15625 0.390625q0.453125 0.21875 0.671875 0.53125q0.21875 0.3125 0.21875 0.765625q0 0.75 -0.609375 1.21875q-0.59375 0.453125 -1.5625 0.453125q-0.671875 0 -1.203125 -0.234375q-0.515625 -0.25 -0.8125 -0.671875q-0.28125 -0.4375 -0.28125 -0.9375l0.953125 0q0.03125 0.484375 0.390625 0.765625q0.359375 0.28125 0.953125 0.28125q0.546875 0 0.875 -0.21875q0.328125 -0.21875 0.328125 -0.59375zm3.525879 -5.5l0 1.375l1.046875 0l0 0.734375l-1.046875 0l0 3.5q0 0.328125 0.140625 0.5q0.140625 0.171875 0.484375 0.171875q0.15625 0 0.453125 -0.0625l0 0.78125q-0.375 0.109375 -0.734375 0.109375q-0.640625 0 -0.96875 -0.390625q-0.328125 -0.390625 -0.328125 -1.109375l0 -3.5l-1.03125 0l0 -0.734375l1.03125 0l0 -1.375l0.953125 0zm5.652832 7.0q-0.078125 -0.171875 -0.140625 -0.59375q-0.671875 0.703125 -1.59375 0.703125q-0.828125 0 -1.375 -0.46875q-0.53125 -0.484375 -0.53125 -1.203125q0 -0.875 0.671875 -1.359375q0.671875 -0.484375 1.875 -0.484375l0.9375 0l0 -0.453125q0 -0.5 -0.296875 -0.796875q-0.296875 -0.296875 -0.890625 -0.296875q-0.515625 0 -0.859375 0.265625q-0.34375 0.25 -0.34375 0.625l-0.96875 0q0 -0.421875 0.296875 -0.8125q0.296875 -0.40625 0.8125 -0.625q0.515625 -0.234375 1.125 -0.234375q0.96875 0 1.515625 0.484375q0.5625 0.484375 0.578125 1.34375l0 2.59375q0 0.765625 0.203125 1.234375l0 0.078125l-1.015625 0zm-1.59375 -0.734375q0.453125 0 0.859375 -0.234375q0.40625 -0.234375 0.578125 -0.609375l0 -1.15625l-0.75 0q-1.765625 0 -1.765625 1.03125q0 0.453125 0.296875 0.71875q0.3125 0.25 0.78125 0.25zm4.827667 -4.890625l0.03125 0.703125q0.640625 -0.8125 1.6875 -0.8125q1.78125 0 1.796875 2.015625l0 3.71875l-0.96875 0l0 -3.71875q0 -0.609375 -0.28125 -0.90625q-0.265625 -0.296875 -0.84375 -0.296875q-0.46875 0 -0.828125 0.25q-0.34375 0.25 -0.546875 0.65625l0 4.015625l-0.953125 0l0 -5.625l0.90625 0zm4.739044 2.765625q0 -1.296875 0.609375 -2.078125q0.609375 -0.796875 1.609375 -0.796875q0.984375 0 1.5625 0.671875l0 -2.9375l0.96875 0l0 8.0l-0.890625 0l-0.046875 -0.609375q-0.578125 0.71875 -1.609375 0.71875q-0.96875 0 -1.59375 -0.796875q-0.609375 -0.8125 -0.609375 -2.09375l0 -0.078125zm0.953125 0.109375q0 0.953125 0.390625 1.5q0.40625 0.53125 1.09375 0.53125q0.921875 0 1.34375 -0.8125l0 -2.59375q-0.4375 -0.796875 -1.328125 -0.796875q-0.703125 0 -1.109375 0.546875q-0.390625 0.546875 -0.390625 1.625zm12.679047 0q0 1.28125 -0.59375 2.078125q-0.578125 0.78125 -1.59375 0.78125q-1.015625 0 -1.609375 -0.65625l0 2.71875l-0.953125 0l0 -7.796875l0.875 0l0.046875 0.625q0.59375 -0.734375 1.625 -0.734375q1.015625 0 1.609375 0.765625q0.59375 0.765625 0.59375 2.125l0 0.09375zm-0.96875 -0.109375q0 -0.953125 -0.40625 -1.5q-0.40625 -0.5625 -1.109375 -0.5625q-0.875 0 -1.3125 0.78125l0 2.6875q0.4375 0.765625 1.328125 0.765625q0.6875 0 1.09375 -0.546875q0.40625 -0.546875 0.40625 -1.625zm5.666046 2.859375q-0.078125 -0.171875 -0.140625 -0.59375q-0.671875 0.703125 -1.59375 0.703125q-0.828125 0 -1.375 -0.46875q-0.53125 -0.484375 -0.53125 -1.203125q0 -0.875 0.671875 -1.359375q0.671875 -0.484375 1.875 -0.484375l0.9375 0l0 -0.453125q0 -0.5 -0.296875 -0.796875q-0.296875 -0.296875 -0.890625 -0.296875q-0.515625 0 -0.859375 0.265625q-0.34375 0.25 -0.34375 0.625l-0.96875 0q0 -0.421875 0.296875 -0.8125q0.296875 -0.40625 0.8125 -0.625q0.515625 -0.234375 1.125 -0.234375q0.96875 0 1.515625 0.484375q0.5625 0.484375 0.578125 1.34375l0 2.59375q0 0.765625 0.203125 1.234375l0 0.078125l-1.015625 0zm-1.59375 -0.734375q0.453125 0 0.859375 -0.234375q0.40625 -0.234375 0.578125 -0.609375l0 -1.15625l-0.75 0q-1.765625 0 -1.765625 1.03125q0 0.453125 0.296875 0.71875q0.3125 0.25 0.78125 0.25zm4.968292 0.734375l-0.96875 0l0 -5.625l0.96875 0l0 5.625zm-1.046875 -7.125q0 -0.234375 0.140625 -0.390625q0.140625 -0.171875 0.421875 -0.171875q0.28125 0 0.421875 0.171875q0.15625 0.15625 0.15625 0.390625q0 0.234375 -0.15625 0.390625q-0.140625 0.15625 -0.421875 0.15625q-0.28125 0 -0.421875 -0.15625q-0.140625 -0.15625 -0.140625 -0.390625zm3.4922485 1.5l0.03125 0.703125q0.640625 -0.8125 1.6875 -0.8125q1.78125 0 1.796875 2.015625l0 3.71875l-0.96875 0l0 -3.71875q0 -0.609375 -0.28125 -0.90625q-0.265625 -0.296875 -0.84375 -0.296875q-0.46875 0 -0.828125 0.25q-0.34375 0.25 -0.546875 0.65625l0 4.015625l-0.953125 0l0 -5.625l0.90625 0zm12.361481 2.875q0 1.28125 -0.59375 2.078125q-0.578125 0.78125 -1.59375 0.78125q-1.015625 0 -1.609375 -0.65625l0 2.71875l-0.953125 0l0 -7.796875l0.875 0l0.046875 0.625q0.59375 -0.734375 1.625 -0.734375q1.015625 0 1.609375 0.765625q0.59375 0.765625 0.59375 2.125l0 0.09375zm-0.96875 -0.109375q0 -0.953125 -0.40625 -1.5q-0.40625 -0.5625 -1.109375 -0.5625q-0.875 0 -1.3125 0.78125l0 2.6875q0.4375 0.765625 1.328125 0.765625q0.6875 0 1.09375 -0.546875q0.40625 -0.546875 0.40625 -1.625zm1.9316406 0q0 -0.828125 0.328125 -1.484375q0.328125 -0.671875 0.90625 -1.03125q0.578125 -0.359375 1.328125 -0.359375q1.140625 0 1.84375 0.796875q0.71875 0.796875 0.71875 2.125l0 0.0625q0 0.8125 -0.3125 1.46875q-0.3125 0.65625 -0.90625 1.03125q-0.578125 0.359375 -1.34375 0.359375q-1.140625 0 -1.859375 -0.796875q-0.703125 -0.796875 -0.703125 -2.109375l0 -0.0625zm0.96875 0.109375q0 0.9375 0.4375 1.5q0.4375 0.5625 1.15625 0.5625q0.734375 0 1.171875 -0.5625q0.4375 -0.578125 0.4375 -1.609375q0 -0.9375 -0.453125 -1.5q-0.4375 -0.578125 -1.15625 -0.578125q-0.71875 0 -1.15625 0.5625q-0.4375 0.5625 -0.4375 1.625zm6.4211426 2.75l-0.96875 0l0 -5.625l0.96875 0l0 5.625zm-1.046875 -7.125q0 -0.234375 0.140625 -0.390625q0.140625 -0.171875 0.421875 -0.171875q0.28125 0 0.421875 0.171875q0.15625 0.15625 0.15625 0.390625q0 0.234375 -0.15625 0.390625q-0.140625 0.15625 -0.421875 0.15625q-0.28125 0 -0.421875 -0.15625q-0.140625 -0.15625 -0.140625 -0.390625zm3.492279 1.5l0.03125 0.703125q0.640625 -0.8125 1.6875 -0.8125q1.78125 0 1.796875 2.015625l0 3.71875l-0.96875 0l0 -3.71875q0 -0.609375 -0.28125 -0.90625q-0.265625 -0.296875 -0.84375 -0.296875q-0.46875 0 -0.828125 0.25q-0.34375 0.25 -0.546875 0.65625l0 4.015625l-0.953125 0l0 -5.625l0.90625 0zm6.270294 -1.375l0 1.375l1.046875 0l0 0.734375l-1.046875 0l0 3.5q0 0.328125 0.140625 0.5q0.140625 0.171875 0.484375 0.171875q0.15625 0 0.453125 -0.0625l0 0.78125q-0.375 0.109375 -0.734375 0.109375q-0.640625 0 -0.96875 -0.390625q-0.328125 -0.390625 -0.328125 -1.109375l0 -3.5l-1.03125 0l0 -0.734375l1.03125 0l0 -1.375l0.953125 0zm5.4497375 5.5q0 -0.390625 -0.296875 -0.59375q-0.28125 -0.21875 -1.015625 -0.375q-0.734375 -0.15625 -1.171875 -0.375q-0.421875 -0.21875 -0.625 -0.515625q-0.203125 -0.3125 -0.203125 -0.71875q0 -0.703125 0.578125 -1.171875q0.59375 -0.484375 1.5 -0.484375q0.953125 0 1.546875 0.5q0.609375 0.484375 0.609375 1.265625l-0.96875 0q0 -0.40625 -0.34375 -0.6875q-0.328125 -0.28125 -0.84375 -0.28125q-0.515625 0 -0.8125 0.234375q-0.296875 0.21875 -0.296875 0.59375q0 0.34375 0.265625 0.53125q0.28125 0.171875 1.0 0.328125q0.71875 0.15625 1.15625 0.390625q0.453125 0.21875 0.671875 0.53125q0.21875 0.3125 0.21875 0.765625q0 0.75 -0.609375 1.21875q-0.59375 0.453125 -1.5625 0.453125q-0.671875 0 -1.203125 -0.234375q-0.515625 -0.25 -0.8125 -0.671875q-0.28125 -0.4375 -0.28125 -0.9375l0.953125 0q0.03125 0.484375 0.390625 0.765625q0.359375 0.28125 0.953125 0.28125q0.546875 0 0.875 -0.21875q0.328125 -0.21875 0.328125 -0.59375z" fill-rule="nonzero"/><path fill="#551561" d="m398.74802 74.461945l124.91342 0c3.9677734 0 7.7730713 1.5762024 10.578735 4.3818665c2.805664 2.805664 4.381897 6.6109543 4.381897 10.578758l0 14.960632l-139.87405 0z" fill-rule="evenodd"/><path fill="#ffffff" d="m412.90427 89.662575l-3.28125 0l0 2.6875l3.8125 0l0 0.8125l-4.8125 0l0 -7.578125l4.765625 0l0 0.828125l-3.765625 0l0 2.4375l3.28125 0l0 0.8125zm2.5409546 -2.125l0.015625 0.625q0.625 -0.734375 1.671875 -0.734375q1.1875 0 1.609375 0.90625q0.28125 -0.40625 0.734375 -0.65625q0.453125 -0.25 1.0625 -0.25q1.84375 0 1.875 1.96875l0 3.765625l-0.953125 0l0 -3.71875q0 -0.59375 -0.28125 -0.890625q-0.265625 -0.3125 -0.921875 -0.3125q-0.53125 0 -0.890625 0.328125q-0.359375 0.3125 -0.40625 0.859375l0 3.734375l-0.96875 0l0 -3.6875q0 -1.234375 -1.203125 -1.234375q-0.953125 0 -1.296875 0.8125l0 4.109375l-0.96875 0l0 -5.625l0.921875 0zm13.183594 2.875q0 1.28125 -0.59375 2.078125q-0.578125 0.78125 -1.59375 0.78125q-1.015625 0 -1.609375 -0.65625l0 2.71875l-0.953125 0l0 -7.796875l0.875 0l0.046875 0.625q0.59375 -0.734375 1.625 -0.734375q1.015625 0 1.609375 0.765625q0.59375 0.765625 0.59375 2.125l0 0.09375zm-0.96875 -0.109375q0 -0.953125 -0.40625 -1.5q-0.40625 -0.5625 -1.109375 -0.5625q-0.875 0 -1.3125 0.78125l0 2.6875q0.4375 0.765625 1.328125 0.765625q0.6875 0 1.09375 -0.546875q0.40625 -0.546875 0.40625 -1.625zm5.6660156 2.859375q-0.078125 -0.171875 -0.140625 -0.59375q-0.671875 0.703125 -1.59375 0.703125q-0.828125 0 -1.375 -0.46875q-0.53125 -0.484375 -0.53125 -1.203125q0 -0.875 0.671875 -1.359375q0.671875 -0.484375 1.875 -0.484375l0.9375 0l0 -0.453125q0 -0.5 -0.296875 -0.796875q-0.296875 -0.296875 -0.890625 -0.296875q-0.515625 0 -0.859375 0.265625q-0.34375 0.25 -0.34375 0.625l-0.96875 0q0 -0.421875 0.296875 -0.8125q0.296875 -0.40625 0.8125 -0.625q0.515625 -0.234375 1.125 -0.234375q0.96875 0 1.515625 0.484375q0.5625 0.484375 0.578125 1.34375l0 2.59375q0 0.765625 0.203125 1.234375l0 0.078125l-1.015625 0zm-1.59375 -0.734375q0.453125 0 0.859375 -0.234375q0.40625 -0.234375 0.578125 -0.609375l0 -1.15625l-0.75 0q-1.765625 0 -1.765625 1.03125q0 0.453125 0.296875 0.71875q0.3125 0.25 0.78125 0.25zm5.218292 -6.265625l0 1.375l1.046875 0l0 0.734375l-1.046875 0l0 3.5q0 0.328125 0.140625 0.5q0.140625 0.171875 0.484375 0.171875q0.15625 0 0.453125 -0.0625l0 0.78125q-0.375 0.109375 -0.734375 0.109375q-0.640625 0 -0.96875 -0.390625q-0.328125 -0.390625 -0.328125 -1.109375l0 -3.5l-1.03125 0l0 -0.734375l1.03125 0l0 -1.375l0.953125 0zm3.1372375 2.046875q0.640625 -0.78125 1.671875 -0.78125q1.78125 0 1.796875 2.015625l0 3.71875l-0.96875 0l0 -3.71875q0 -0.609375 -0.28125 -0.90625q-0.265625 -0.296875 -0.84375 -0.296875q-0.46875 0 -0.828125 0.25q-0.34375 0.25 -0.546875 0.65625l0 4.015625l-0.953125 0l0 -8.0l0.953125 0l0 3.046875zm5.9630127 4.953125l-0.96875 0l0 -5.625l0.96875 0l0 5.625zm-1.046875 -7.125q0 -0.234375 0.140625 -0.390625q0.140625 -0.171875 0.421875 -0.171875q0.28125 0 0.421875 0.171875q0.15625 0.15625 0.15625 0.390625q0 0.234375 -0.15625 0.390625q-0.140625 0.15625 -0.421875 0.15625q-0.28125 0 -0.421875 -0.15625q-0.140625 -0.15625 -0.140625 -0.390625zm3.4922485 6.34375l3.28125 0l0 0.78125l-4.46875 0l0 -0.703125l3.109375 -4.125l-3.0625 0l0 -0.796875l4.265625 0l0 0.671875l-3.125 4.171875zm6.6198425 0.890625q-1.140625 0 -1.859375 -0.75q-0.71875 -0.765625 -0.71875 -2.015625l0 -0.171875q0 -0.84375 0.3125 -1.5q0.328125 -0.65625 0.90625 -1.03125q0.578125 -0.375 1.234375 -0.375q1.109375 0 1.71875 0.734375q0.609375 0.71875 0.609375 2.0625l0 0.390625l-3.8125 0q0.015625 0.84375 0.484375 1.359375q0.46875 0.5 1.171875 0.5q0.515625 0 0.859375 -0.203125q0.359375 -0.203125 0.625 -0.546875l0.59375 0.453125q-0.703125 1.09375 -2.125 1.09375zm-0.125 -5.046875q-0.578125 0 -0.96875 0.421875q-0.390625 0.421875 -0.484375 1.1875l2.8125 0l0 -0.078125q-0.046875 -0.734375 -0.40625 -1.125q-0.34375 -0.40625 -0.953125 -0.40625z" fill-rule="nonzero"/><path fill="#701c7f" d="m258.87402 284.27036l139.874 0l0 66.11023l-139.874 0z" fill-rule="evenodd"/><path fill="#ffffff" d="m268.74902 303.51035l0 -7.578125l2.140625 0q0.984375 0 1.75 0.4375q0.765625 0.4375 1.171875 1.25q0.421875 0.796875 0.421875 1.84375l0 0.484375q0 1.078125 -0.421875 1.890625q-0.40625 0.796875 -1.171875 1.234375q-0.765625 0.421875 -1.796875 0.4375l-2.09375 0zm1.0 -6.75l0 5.9375l1.046875 0q1.15625 0 1.796875 -0.71875q0.65625 -0.71875 0.65625 -2.046875l0 -0.4375q0 -1.296875 -0.609375 -2.015625q-0.609375 -0.71875 -1.71875 -0.71875l-1.171875 0zm8.175446 6.859375q-1.140625 0 -1.859375 -0.75q-0.71875 -0.765625 -0.71875 -2.015625l0 -0.171875q0 -0.84375 0.3125 -1.5q0.328125 -0.65625 0.90625 -1.03125q0.578125 -0.375 1.234375 -0.375q1.109375 0 1.71875 0.734375q0.609375 0.71875 0.609375 2.0625l0 0.390625l-3.8125 0q0.015625 0.84375 0.484375 1.359375q0.46875 0.5 1.171875 0.5q0.515625 0 0.859375 -0.203125q0.359375 -0.203125 0.625 -0.546875l0.59375 0.453125q-0.703125 1.09375 -2.125 1.09375zm-0.125 -5.046875q-0.578125 0 -0.96875 0.421875q-0.390625 0.421875 -0.484375 1.1875l2.8125 0l0 -0.078125q-0.046875 -0.734375 -0.40625 -1.125q-0.34375 -0.40625 -0.953125 -0.40625zm4.4892883 4.9375l-0.96875 0l0 -8.0l0.96875 0l0 8.0zm2.5859985 0l-0.96875 0l0 -5.625l0.96875 0l0 5.625zm-1.046875 -7.125q0 -0.234375 0.140625 -0.390625q0.140625 -0.171875 0.421875 -0.171875q0.28125 0 0.421875 0.171875q0.15625 0.15625 0.15625 0.390625q0 0.234375 -0.15625 0.390625q-0.140625 0.15625 -0.421875 0.15625q-0.28125 0 -0.421875 -0.15625q-0.140625 -0.15625 -0.140625 -0.390625zm4.445404 5.8125l1.390625 -4.3125l0.984375 0l-2.03125 5.625l-0.71875 0l-2.046875 -5.625l0.984375 0l1.4375 4.3125zm5.5626526 1.421875q-1.140625 0 -1.859375 -0.75q-0.71875 -0.765625 -0.71875 -2.015625l0 -0.171875q0 -0.84375 0.3125 -1.5q0.328125 -0.65625 0.90625 -1.03125q0.578125 -0.375 1.234375 -0.375q1.109375 0 1.71875 0.734375q0.609375 0.71875 0.609375 2.0625l0 0.390625l-3.8125 0q0.015625 0.84375 0.484375 1.359375q0.46875 0.5 1.171875 0.5q0.515625 0 0.859375 -0.203125q0.359375 -0.203125 0.625 -0.546875l0.59375 0.453125q-0.703125 1.09375 -2.125 1.09375zm-0.125 -5.046875q-0.578125 0 -0.96875 0.421875q-0.390625 0.421875 -0.484375 1.1875l2.8125 0l0 -0.078125q-0.046875 -0.734375 -0.40625 -1.125q-0.34375 -0.40625 -0.953125 -0.40625zm6.1611633 0.171875q-0.21875 -0.03125 -0.484375 -0.03125q-0.9375 0 -1.28125 0.796875l0 4.0l-0.953125 0l0 -5.625l0.9375 0l0.015625 0.640625q0.46875 -0.75 1.328125 -0.75q0.28125 0 0.4375 0.078125l0 0.890625zm5.3688965 3.359375l1.296875 -4.21875l1.03125 0l-2.25 6.5q-0.53125 1.40625 -1.671875 1.40625l-0.1875 -0.015625l-0.359375 -0.078125l0 -0.78125l0.265625 0.03125q0.484375 0 0.75 -0.203125q0.28125 -0.203125 0.453125 -0.71875l0.21875 -0.578125l-2.015625 -5.5625l1.0625 0l1.40625 4.21875zm2.8544312 -1.453125q0 -0.828125 0.328125 -1.484375q0.328125 -0.671875 0.90625 -1.03125q0.578125 -0.359375 1.328125 -0.359375q1.140625 0 1.84375 0.796875q0.71875 0.796875 0.71875 2.125l0 0.0625q0 0.8125 -0.3125 1.46875q-0.3125 0.65625 -0.90625 1.03125q-0.578125 0.359375 -1.34375 0.359375q-1.140625 0 -1.859375 -0.796875q-0.703125 -0.796875 -0.703125 -2.109375l0 -0.0625zm0.96875 0.109375q0 0.9375 0.4375 1.5q0.4375 0.5625 1.15625 0.5625q0.734375 0 1.171875 -0.5625q0.4375 -0.578125 0.4375 -1.609375q0 -0.9375 -0.453125 -1.5q-0.4375 -0.578125 -1.15625 -0.578125q-0.71875 0 -1.15625 0.5625q-0.4375 0.5625 -0.4375 1.625zm8.843018 2.1875q-0.5625 0.671875 -1.640625 0.671875q-0.90625 0 -1.375 -0.515625q-0.46875 -0.53125 -0.484375 -1.5625l0 -3.65625l0.96875 0l0 3.625q0 1.28125 1.03125 1.28125q1.109375 0 1.46875 -0.8125l0 -4.09375l0.96875 0l0 5.625l-0.921875 0l-0.015625 -0.5625zm5.124481 -4.203125q-0.21875 -0.03125 -0.484375 -0.03125q-0.9375 0 -1.28125 0.796875l0 4.0l-0.953125 0l0 -5.625l0.9375 0l0.015625 0.640625q0.46875 -0.75 1.328125 -0.75q0.28125 0 0.4375 0.078125l0 0.890625zm4.5720215 4.765625l-0.96875 0l0 -5.625l0.96875 0l0 5.625zm-1.046875 -7.125q0 -0.234375 0.140625 -0.390625q0.140625 -0.171875 0.421875 -0.171875q0.28125 0 0.421875 0.171875q0.15625 0.15625 0.15625 0.390625q0 0.234375 -0.15625 0.390625q-0.140625 0.15625 -0.421875 0.15625q-0.28125 0 -0.421875 -0.15625q-0.140625 -0.15625 -0.140625 -0.390625zm3.4922485 1.5l0.03125 0.703125q0.640625 -0.8125 1.6875 -0.8125q1.78125 0 1.796875 2.015625l0 3.71875l-0.96875 0l0 -3.71875q0 -0.609375 -0.28125 -0.90625q-0.265625 -0.296875 -0.84375 -0.296875q-0.46875 0 -0.828125 0.25q-0.34375 0.25 -0.546875 0.65625l0 4.015625l-0.953125 0l0 -5.625l0.90625 0zm6.020294 5.625l-0.96875 0l0 -5.625l0.96875 0l0 5.625zm-1.046875 -7.125q0 -0.234375 0.140625 -0.390625q0.140625 -0.171875 0.421875 -0.171875q0.28125 0 0.421875 0.171875q0.15625 0.15625 0.15625 0.390625q0 0.234375 -0.15625 0.390625q-0.140625 0.15625 -0.421875 0.15625q-0.28125 0 -0.421875 -0.15625q-0.140625 -0.15625 -0.140625 -0.390625zm3.882904 0.125l0 1.375l1.046875 0l0 0.734375l-1.046875 0l0 3.5q0 0.328125 0.140625 0.5q0.140625 0.171875 0.484375 0.171875q0.15625 0 0.453125 -0.0625l0 0.78125q-0.375 0.109375 -0.734375 0.109375q-0.640625 0 -0.96875 -0.390625q-0.328125 -0.390625 -0.328125 -1.109375l0 -3.5l-1.03125 0l0 -0.734375l1.03125 0l0 -1.375l0.953125 0zm3.230957 7.0l-0.96875 0l0 -5.625l0.96875 0l0 5.625zm-1.046875 -7.125q0 -0.234375 0.140625 -0.390625q0.140625 -0.171875 0.421875 -0.171875q0.28125 0 0.421875 0.171875q0.15625 0.15625 0.15625 0.390625q0 0.234375 -0.15625 0.390625q-0.140625 0.15625 -0.421875 0.15625q-0.28125 0 -0.421875 -0.15625q-0.140625 -0.15625 -0.140625 -0.390625zm6.054779 7.125q-0.078125 -0.171875 -0.140625 -0.59375q-0.671875 0.703125 -1.59375 0.703125q-0.828125 0 -1.375 -0.46875q-0.53125 -0.484375 -0.53125 -1.203125q0 -0.875 0.671875 -1.359375q0.671875 -0.484375 1.875 -0.484375l0.9375 0l0 -0.453125q0 -0.5 -0.296875 -0.796875q-0.296875 -0.296875 -0.890625 -0.296875q-0.515625 0 -0.859375 0.265625q-0.34375 0.25 -0.34375 0.625l-0.96875 0q0 -0.421875 0.296875 -0.8125q0.296875 -0.40625 0.8125 -0.625q0.515625 -0.234375 1.125 -0.234375q0.96875 0 1.515625 0.484375q0.5625 0.484375 0.578125 1.34375l0 2.59375q0 0.765625 0.203125 1.234375l0 0.078125l-1.015625 0zm-1.59375 -0.734375q0.453125 0 0.859375 -0.234375q0.40625 -0.234375 0.578125 -0.609375l0 -1.15625l-0.75 0q-1.765625 0 -1.765625 1.03125q0 0.453125 0.296875 0.71875q0.3125 0.25 0.78125 0.25zm5.218292 -6.265625l0 1.375l1.046875 0l0 0.734375l-1.046875 0l0 3.5q0 0.328125 0.140625 0.5q0.140625 0.171875 0.484375 0.171875q0.15625 0 0.453125 -0.0625l0 0.78125q-0.375 0.109375 -0.734375 0.109375q-0.640625 0 -0.96875 -0.390625q-0.328125 -0.390625 -0.328125 -1.109375l0 -3.5l-1.03125 0l0 -0.734375l1.03125 0l0 -1.375l0.953125 0zm3.230957 7.0l-0.96875 0l0 -5.625l0.96875 0l0 5.625zm-1.046875 -7.125q0 -0.234375 0.140625 -0.390625q0.140625 -0.171875 0.421875 -0.171875q0.28125 0 0.421875 0.171875q0.15625 0.15625 0.15625 0.390625q0 0.234375 -0.15625 0.390625q-0.140625 0.15625 -0.421875 0.15625q-0.28125 0 -0.421875 -0.15625q-0.140625 -0.15625 -0.140625 -0.390625zm4.445404 5.8125l1.390625 -4.3125l0.984375 0l-2.03125 5.625l-0.71875 0l-2.046875 -5.625l0.984375 0l1.4375 4.3125zm5.5626526 1.421875q-1.140625 0 -1.859375 -0.75q-0.71875 -0.765625 -0.71875 -2.015625l0 -0.171875q0 -0.84375 0.3125 -1.5q0.328125 -0.65625 0.90625 -1.03125q0.578125 -0.375 1.234375 -0.375q1.109375 0 1.71875 0.734375q0.609375 0.71875 0.609375 2.0625l0 0.390625l-3.8125 0q0.015625 0.84375 0.484375 1.359375q0.46875 0.5 1.171875 0.5q0.515625 0 0.859375 -0.203125q0.359375 -0.203125 0.625 -0.546875l0.59375 0.453125q-0.703125 1.09375 -2.125 1.09375zm-0.125 -5.046875q-0.578125 0 -0.96875 0.421875q-0.390625 0.421875 -0.484375 1.1875l2.8125 0l0 -0.078125q-0.046875 -0.734375 -0.40625 -1.125q-0.34375 -0.40625 -0.953125 -0.40625zm6.7080383 3.4375q0 -0.390625 -0.296875 -0.59375q-0.28125 -0.21875 -1.015625 -0.375q-0.734375 -0.15625 -1.171875 -0.375q-0.421875 -0.21875 -0.625 -0.515625q-0.203125 -0.3125 -0.203125 -0.71875q0 -0.703125 0.578125 -1.171875q0.59375 -0.484375 1.5 -0.484375q0.953125 0 1.546875 0.5q0.609375 0.484375 0.609375 1.265625l-0.96875 0q0 -0.40625 -0.34375 -0.6875q-0.328125 -0.28125 -0.84375 -0.28125q-0.515625 0 -0.8125 0.234375q-0.296875 0.21875 -0.296875 0.59375q0 0.34375 0.265625 0.53125q0.28125 0.171875 1.0 0.328125q0.71875 0.15625 1.15625 0.390625q0.453125 0.21875 0.671875 0.53125q0.21875 0.3125 0.21875 0.765625q0 0.75 -0.609375 1.21875q-0.59375 0.453125 -1.5625 0.453125q-0.671875 0 -1.203125 -0.234375q-0.515625 -0.25 -0.8125 -0.671875q-0.28125 -0.4375 -0.28125 -0.9375l0.953125 0q0.03125 0.484375 0.390625 0.765625q0.359375 0.28125 0.953125 0.28125q0.546875 0 0.875 -0.21875q0.328125 -0.21875 0.328125 -0.59375z" fill-rule="nonzero"/><path fill="#ffffff" d="m272.07715 316.51035q-0.078125 -0.171875 -0.140625 -0.59375q-0.671875 0.703125 -1.59375 0.703125q-0.828125 0 -1.375 -0.46875q-0.53125 -0.484375 -0.53125 -1.203125q0 -0.875 0.671875 -1.359375q0.671875 -0.484375 1.875 -0.484375l0.9375 0l0 -0.453125q0 -0.5 -0.296875 -0.796875q-0.296875 -0.296875 -0.890625 -0.296875q-0.515625 0 -0.859375 0.265625q-0.34375 0.25 -0.34375 0.625l-0.96875 0q0 -0.421875 0.296875 -0.8125q0.296875 -0.40625 0.8125 -0.625q0.515625 -0.234375 1.125 -0.234375q0.96875 0 1.515625 0.484375q0.5625 0.484375 0.578125 1.34375l0 2.59375q0 0.765625 0.203125 1.234375l0 0.078125l-1.015625 0zm-1.59375 -0.734375q0.453125 0 0.859375 -0.234375q0.40625 -0.234375 0.578125 -0.609375l0 -1.15625l-0.75 0q-1.765625 0 -1.765625 1.03125q0 0.453125 0.296875 0.71875q0.3125 0.25 0.78125 0.25zm4.827667 -4.890625l0.03125 0.703125q0.640625 -0.8125 1.6875 -0.8125q1.78125 0 1.796875 2.015625l0 3.71875l-0.96875 0l0 -3.71875q0 -0.609375 -0.28125 -0.90625q-0.265625 -0.296875 -0.84375 -0.296875q-0.46875 0 -0.828125 0.25q-0.34375 0.25 -0.546875 0.65625l0 4.015625l-0.953125 0l0 -5.625l0.90625 0zm4.739044 2.765625q0 -1.296875 0.609375 -2.078125q0.609375 -0.796875 1.609375 -0.796875q0.984375 0 1.5625 0.671875l0 -2.9375l0.96875 0l0 8.0l-0.890625 0l-0.046875 -0.609375q-0.578125 0.71875 -1.609375 0.71875q-0.96875 0 -1.59375 -0.796875q-0.609375 -0.8125 -0.609375 -2.09375l0 -0.078125zm0.953125 0.109375q0 0.953125 0.390625 1.5q0.40625 0.53125 1.09375 0.53125q0.921875 0 1.34375 -0.8125l0 -2.59375q-0.4375 -0.796875 -1.328125 -0.796875q-0.703125 0 -1.109375 0.546875q-0.390625 0.546875 -0.390625 1.625zm11.397797 2.75q-0.078125 -0.171875 -0.140625 -0.59375q-0.671875 0.703125 -1.59375 0.703125q-0.828125 0 -1.375 -0.46875q-0.53125 -0.484375 -0.53125 -1.203125q0 -0.875 0.671875 -1.359375q0.671875 -0.484375 1.875 -0.484375l0.9375 0l0 -0.453125q0 -0.5 -0.296875 -0.796875q-0.296875 -0.296875 -0.890625 -0.296875q-0.515625 0 -0.859375 0.265625q-0.34375 0.25 -0.34375 0.625l-0.96875 0q0 -0.421875 0.296875 -0.8125q0.296875 -0.40625 0.8125 -0.625q0.515625 -0.234375 1.125 -0.234375q0.96875 0 1.515625 0.484375q0.5625 0.484375 0.578125 1.34375l0 2.59375q0 0.765625 0.203125 1.234375l0 0.078125l-1.015625 0zm-1.59375 -0.734375q0.453125 0 0.859375 -0.234375q0.40625 -0.234375 0.578125 -0.609375l0 -1.15625l-0.75 0q-1.765625 0 -1.765625 1.03125q0 0.453125 0.296875 0.71875q0.3125 0.25 0.78125 0.25zm7.187042 -0.765625q0 -0.390625 -0.296875 -0.59375q-0.28125 -0.21875 -1.015625 -0.375q-0.734375 -0.15625 -1.171875 -0.375q-0.421875 -0.21875 -0.625 -0.515625q-0.203125 -0.3125 -0.203125 -0.71875q0 -0.703125 0.578125 -1.171875q0.59375 -0.484375 1.5 -0.484375q0.953125 0 1.546875 0.5q0.609375 0.484375 0.609375 1.265625l-0.96875 0q0 -0.40625 -0.34375 -0.6875q-0.328125 -0.28125 -0.84375 -0.28125q-0.515625 0 -0.8125 0.234375q-0.296875 0.21875 -0.296875 0.59375q0 0.34375 0.265625 0.53125q0.28125 0.171875 1.0 0.328125q0.71875 0.15625 1.15625 0.390625q0.453125 0.21875 0.671875 0.53125q0.21875 0.3125 0.21875 0.765625q0 0.75 -0.609375 1.21875q-0.59375 0.453125 -1.5625 0.453125q-0.671875 0 -1.203125 -0.234375q-0.515625 -0.25 -0.8125 -0.671875q-0.28125 -0.4375 -0.28125 -0.9375l0.953125 0q0.03125 0.484375 0.390625 0.765625q0.359375 0.28125 0.953125 0.28125q0.546875 0 0.875 -0.21875q0.328125 -0.21875 0.328125 -0.59375zm3.791504 -1.109375l-0.59375 0.625l0 1.984375l-0.96875 0l0 -8.0l0.96875 0l0 4.84375l0.515625 -0.625l1.75 -1.84375l1.171875 0l-2.203125 2.34375l2.453125 3.28125l-1.125 0l-1.96875 -2.609375zm6.9452515 2.609375l0 -4.890625l-0.890625 0l0 -0.734375l0.890625 0l0 -0.578125q0 -0.90625 0.484375 -1.390625q0.484375 -0.5 1.359375 -0.5q0.34375 0 0.671875 0.078125l-0.0625 0.78125q-0.234375 -0.046875 -0.515625 -0.046875q-0.46875 0 -0.71875 0.28125q-0.25 0.265625 -0.25 0.78125l0 0.59375l1.1875 0l0 0.734375l-1.1875 0l0 4.890625l-0.96875 0zm2.965149 -2.859375q0 -0.828125 0.328125 -1.484375q0.328125 -0.671875 0.90625 -1.03125q0.578125 -0.359375 1.328125 -0.359375q1.140625 0 1.84375 0.796875q0.71875 0.796875 0.71875 2.125l0 0.0625q0 0.8125 -0.3125 1.46875q-0.3125 0.65625 -0.90625 1.03125q-0.578125 0.359375 -1.34375 0.359375q-1.140625 0 -1.859375 -0.796875q-0.703125 -0.796875 -0.703125 -2.109375l0 -0.0625zm0.96875 0.109375q0 0.9375 0.4375 1.5q0.4375 0.5625 1.15625 0.5625q0.734375 0 1.171875 -0.5625q0.4375 -0.578125 0.4375 -1.609375q0 -0.9375 -0.453125 -1.5q-0.4375 -0.578125 -1.15625 -0.578125q-0.71875 0 -1.15625 0.5625q-0.4375 0.5625 -0.4375 1.625zm8.093018 -2.015625q-0.21875 -0.03125 -0.484375 -0.03125q-0.9375 0 -1.28125 0.796875l0 4.0l-0.953125 0l0 -5.625l0.9375 0l0.015625 0.640625q0.46875 -0.75 1.328125 -0.75q0.28125 0 0.4375 0.078125l0 0.890625zm3.9938965 4.765625l0 -4.890625l-0.890625 0l0 -0.734375l0.890625 0l0 -0.578125q0 -0.90625 0.484375 -1.390625q0.484375 -0.5 1.359375 -0.5q0.34375 0 0.671875 0.078125l-0.0625 0.78125q-0.234375 -0.046875 -0.515625 -0.046875q-0.46875 0 -0.71875 0.28125q-0.25 0.265625 -0.25 0.78125l0 0.59375l1.1875 0l0 0.734375l-1.1875 0l0 4.890625l-0.96875 0zm5.4338684 0.109375q-1.140625 0 -1.859375 -0.75q-0.71875 -0.765625 -0.71875 -2.015625l0 -0.171875q0 -0.84375 0.3125 -1.5q0.328125 -0.65625 0.90625 -1.03125q0.578125 -0.375 1.234375 -0.375q1.109375 0 1.71875 0.734375q0.609375 0.71875 0.609375 2.0625l0 0.390625l-3.8125 0q0.015625 0.84375 0.484375 1.359375q0.46875 0.5 1.171875 0.5q0.515625 0 0.859375 -0.203125q0.359375 -0.203125 0.625 -0.546875l0.59375 0.453125q-0.703125 1.09375 -2.125 1.09375zm-0.125 -5.046875q-0.578125 0 -0.96875 0.421875q-0.390625 0.421875 -0.484375 1.1875l2.8125 0l0 -0.078125q-0.046875 -0.734375 -0.40625 -1.125q-0.34375 -0.40625 -0.953125 -0.40625zm5.7705383 5.046875q-1.140625 0 -1.859375 -0.75q-0.71875 -0.765625 -0.71875 -2.015625l0 -0.171875q0 -0.84375 0.3125 -1.5q0.328125 -0.65625 0.90625 -1.03125q0.578125 -0.375 1.234375 -0.375q1.109375 0 1.71875 0.734375q0.609375 0.71875 0.609375 2.0625l0 0.390625l-3.8125 0q0.015625 0.84375 0.484375 1.359375q0.46875 0.5 1.171875 0.5q0.515625 0 0.859375 -0.203125q0.359375 -0.203125 0.625 -0.546875l0.59375 0.453125q-0.703125 1.09375 -2.125 1.09375zm-0.125 -5.046875q-0.578125 0 -0.96875 0.421875q-0.390625 0.421875 -0.484375 1.1875l2.8125 0l0 -0.078125q-0.046875 -0.734375 -0.40625 -1.125q-0.34375 -0.40625 -0.953125 -0.40625zm3.2080078 2.078125q0 -1.296875 0.609375 -2.078125q0.609375 -0.796875 1.609375 -0.796875q0.984375 0 1.5625 0.671875l0 -2.9375l0.96875 0l0 8.0l-0.890625 0l-0.046875 -0.609375q-0.578125 0.71875 -1.609375 0.71875q-0.96875 0 -1.59375 -0.796875q-0.609375 -0.8125 -0.609375 -2.09375l0 -0.078125zm0.953125 0.109375q0 0.953125 0.390625 1.5q0.40625 0.53125 1.09375 0.53125q0.921875 0 1.34375 -0.8125l0 -2.59375q-0.4375 -0.796875 -1.328125 -0.796875q-0.703125 0 -1.109375 0.546875q-0.390625 0.546875 -0.390625 1.625zm10.056641 0q0 1.28125 -0.59375 2.078125q-0.59375 0.78125 -1.59375 0.78125q-1.0625 0 -1.65625 -0.765625l-0.046875 0.65625l-0.875 0l0 -8.0l0.953125 0l0 2.984375q0.59375 -0.71875 1.609375 -0.71875q1.03125 0 1.609375 0.78125q0.59375 0.765625 0.59375 2.125l0 0.078125zm-0.96875 -0.109375q0 -0.984375 -0.390625 -1.515625q-0.375 -0.546875 -1.078125 -0.546875q-0.953125 0 -1.375 0.890625l0 2.4375q0.453125 0.875 1.375 0.875q0.703125 0 1.078125 -0.53125q0.390625 -0.53125 0.390625 -1.609375zm5.6503906 2.859375q-0.078125 -0.171875 -0.140625 -0.59375q-0.671875 0.703125 -1.59375 0.703125q-0.828125 0 -1.375 -0.46875q-0.53125 -0.484375 -0.53125 -1.203125q0 -0.875 0.671875 -1.359375q0.671875 -0.484375 1.875 -0.484375l0.9375 0l0 -0.453125q0 -0.5 -0.296875 -0.796875q-0.296875 -0.296875 -0.890625 -0.296875q-0.515625 0 -0.859375 0.265625q-0.34375 0.25 -0.34375 0.625l-0.96875 0q0 -0.421875 0.296875 -0.8125q0.296875 -0.40625 0.8125 -0.625q0.515625 -0.234375 1.125 -0.234375q0.96875 0 1.515625 0.484375q0.5625 0.484375 0.578125 1.34375l0 2.59375q0 0.765625 0.203125 1.234375l0 0.078125l-1.015625 0zm-1.59375 -0.734375q0.453125 0 0.859375 -0.234375q0.40625 -0.234375 0.578125 -0.609375l0 -1.15625l-0.75 0q-1.765625 0 -1.765625 1.03125q0 0.453125 0.296875 0.71875q0.3125 0.25 0.78125 0.25zm6.171417 0.046875q0.515625 0 0.890625 -0.3125q0.390625 -0.3125 0.4375 -0.78125l0.90625 0q-0.015625 0.484375 -0.328125 0.921875q-0.3125 0.4375 -0.828125 0.703125q-0.5 0.265625 -1.078125 0.265625q-1.140625 0 -1.828125 -0.765625q-0.671875 -0.78125 -0.671875 -2.109375l0 -0.15625q0 -0.828125 0.296875 -1.46875q0.296875 -0.640625 0.859375 -0.984375q0.578125 -0.359375 1.34375 -0.359375q0.9375 0 1.5625 0.578125q0.640625 0.5625 0.671875 1.46875l-0.90625 0q-0.046875 -0.546875 -0.421875 -0.890625q-0.359375 -0.359375 -0.90625 -0.359375q-0.734375 0 -1.140625 0.53125q-0.40625 0.515625 -0.40625 1.515625l0 0.1875q0 0.96875 0.40625 1.5q0.40625 0.515625 1.140625 0.515625zm4.890381 -1.921875l-0.59375 0.625l0 1.984375l-0.96875 0l0 -8.0l0.96875 0l0 4.84375l0.515625 -0.625l1.75 -1.84375l1.171875 0l-2.203125 2.34375l2.453125 3.28125l-1.125 0l-1.96875 -2.609375z" fill-rule="nonzero"/><path fill="#551561" d="m258.87402 254.34908l124.91339 0c3.967804 0 7.773102 1.5762177 10.578735 4.3818817c2.805664 2.805664 4.3818665 6.610962 4.3818665 10.578766l0 14.960632l-139.874 0z" fill-rule="evenodd"/><path fill="#ffffff" d="m268.74902 273.0497l0 -7.578125l2.140625 0q0.984375 0 1.75 0.4375q0.765625 0.4375 1.171875 1.25q0.421875 0.796875 0.421875 1.84375l0 0.484375q0 1.078125 -0.421875 1.890625q-0.40625 0.796875 -1.171875 1.234375q-0.765625 0.421875 -1.796875 0.4375l-2.09375 0zm1.0 -6.75l0 5.9375l1.046875 0q1.15625 0 1.796875 -0.71875q0.65625 -0.71875 0.65625 -2.046875l0 -0.4375q0 -1.296875 -0.609375 -2.015625q-0.609375 -0.71875 -1.71875 -0.71875l-1.171875 0zm8.175446 6.859375q-1.140625 0 -1.859375 -0.75q-0.71875 -0.765625 -0.71875 -2.015625l0 -0.171875q0 -0.84375 0.3125 -1.5q0.328125 -0.65625 0.90625 -1.03125q0.578125 -0.375 1.234375 -0.375q1.109375 0 1.71875 0.734375q0.609375 0.71875 0.609375 2.0625l0 0.390625l-3.8125 0q0.015625 0.84375 0.484375 1.359375q0.46875 0.5 1.171875 0.5q0.515625 0 0.859375 -0.203125q0.359375 -0.203125 0.625 -0.546875l0.59375 0.453125q-0.703125 1.09375 -2.125 1.09375zm-0.125 -5.046875q-0.578125 0 -0.96875 0.421875q-0.390625 0.421875 -0.484375 1.1875l2.8125 0l0 -0.078125q-0.046875 -0.734375 -0.40625 -1.125q-0.34375 -0.40625 -0.953125 -0.40625zm4.4892883 4.9375l-0.96875 0l0 -8.0l0.96875 0l0 8.0zm2.5859985 0l-0.96875 0l0 -5.625l0.96875 0l0 5.625zm-1.046875 -7.125q0 -0.234375 0.140625 -0.390625q0.140625 -0.171875 0.421875 -0.171875q0.28125 0 0.421875 0.171875q0.15625 0.15625 0.15625 0.390625q0 0.234375 -0.15625 0.390625q-0.140625 0.15625 -0.421875 0.15625q-0.28125 0 -0.421875 -0.15625q-0.140625 -0.15625 -0.140625 -0.390625zm4.445404 5.8125l1.390625 -4.3125l0.984375 0l-2.03125 5.625l-0.71875 0l-2.046875 -5.625l0.984375 0l1.4375 4.3125zm5.5626526 1.421875q-1.140625 0 -1.859375 -0.75q-0.71875 -0.765625 -0.71875 -2.015625l0 -0.171875q0 -0.84375 0.3125 -1.5q0.328125 -0.65625 0.90625 -1.03125q0.578125 -0.375 1.234375 -0.375q1.109375 0 1.71875 0.734375q0.609375 0.71875 0.609375 2.0625l0 0.390625l-3.8125 0q0.015625 0.84375 0.484375 1.359375q0.46875 0.5 1.171875 0.5q0.515625 0 0.859375 -0.203125q0.359375 -0.203125 0.625 -0.546875l0.59375 0.453125q-0.703125 1.09375 -2.125 1.09375zm-0.125 -5.046875q-0.578125 0 -0.96875 0.421875q-0.390625 0.421875 -0.484375 1.1875l2.8125 0l0 -0.078125q-0.046875 -0.734375 -0.40625 -1.125q-0.34375 -0.40625 -0.953125 -0.40625zm6.1611633 0.171875q-0.21875 -0.03125 -0.484375 -0.03125q-0.9375 0 -1.28125 0.796875l0 4.0l-0.953125 0l0 -5.625l0.9375 0l0.015625 0.640625q0.46875 -0.75 1.328125 -0.75q0.28125 0 0.4375 0.078125l0 0.890625z" fill-rule="nonzero"/></g></svg>